<svg xmlns="http://www.w3.org/2000/svg" viewBox="0 0 43.61 53.54"><path d="M39.21,20.93,38.05,19.3a9.92,9.92,0,0,0,2.79-3.05,10.72,10.72,0,0,1-1.7.13A11.86,11.86,0,0,1,27.29,4.54a11.76,11.76,0,0,1,.14-1.78,9.81,9.81,0,0,0-4.81,9.82l-2,.26A11.8,11.8,0,0,1,28.57.05a1,1,0,0,1,1,.25,1,1,0,0,1,.24,1,9.89,9.89,0,0,0-.55,3.21,9.86,9.86,0,0,0,9.85,9.84,9.78,9.78,0,0,0,3.15-.53,1,1,0,0,1,1.27,1.27A11.82,11.82,0,0,1,39.21,20.93Z" fill="#fff"/><path d="M33.61,37.59H7a7,7,0,0,1-.06-14,13,13,0,0,1,24.12-5.67,10,10,0,1,1,2.55,19.67ZM7,25.59a5,5,0,0,0,0,10H33.61a8,8,0,0,0,0-16,7.82,7.82,0,0,0-2.69.47l-.82.3-.41-.78a11,11,0,0,0-20.79,5v1.16l-1.14-.1A5.61,5.61,0,0,0,7,25.59Z" fill="#fff"/><path d="M11.8,48.76,8.73,51.83a1,1,0,0,0,.71,1.71,1,1,0,0,0,.71-.3l3.07-3.07a1,1,0,0,0,0-1.41A1,1,0,0,0,11.8,48.76Z" fill="#fff"/><path d="M9.94,41.73a1,1,0,0,0-1.41,0L5.46,44.8a1,1,0,0,0,0,1.41,1,1,0,0,0,1.41,0l3.07-3.07A1,1,0,0,0,9.94,41.73Z" fill="#fff"/><path d="M24,48.76l-3.08,3.07a1,1,0,0,0,0,1.41,1,1,0,0,0,.71.3,1,1,0,0,0,.71-.3l3.07-3.07A1,1,0,0,0,24,48.76Z" fill="#fff"/><path d="M22.09,41.73a1,1,0,0,0-1.42,0L17.6,44.8a1,1,0,0,0,.71,1.71,1,1,0,0,0,.7-.3l3.08-3.07A1,1,0,0,0,22.09,41.73Z" fill="#fff"/><path d="M34.23,41.73a1,1,0,0,0-1.41,0L29.74,44.8a1,1,0,1,0,1.42,1.41l3.07-3.07A1,1,0,0,0,34.23,41.73Z" fill="#fff"/></svg>