<svg xmlns="http://www.w3.org/2000/svg" viewBox="0 0 43.61 42.32"><path d="M39.21,20.93l-1.16-1.64a9.89,9.89,0,0,0,2.79-3,12,12,0,0,1-1.7.13A11.87,11.87,0,0,1,27.29,4.54a11.76,11.76,0,0,1,.14-1.78,9.81,9.81,0,0,0-4.81,9.82l-2,.26A11.8,11.8,0,0,1,28.57.05a1,1,0,0,1,1,.24,1,1,0,0,1,.24,1,9.89,9.89,0,0,0-.55,3.21,9.86,9.86,0,0,0,9.85,9.84,9.78,9.78,0,0,0,3.15-.53,1,1,0,0,1,1.27,1.27A11.87,11.87,0,0,1,39.21,20.93Z" fill="#fff"/><path d="M43.61,27.59a10,10,0,0,0-12.55-9.67A13,13,0,0,0,6.94,23.59a7,7,0,0,0,.06,14H8.51a5.19,5.19,0,0,0,5.15,4.73H33.1A7.31,7.31,0,0,0,40.4,35s0-.07,0-.1A10,10,0,0,0,43.61,27.59ZM33.1,40.32H13.66a3.2,3.2,0,0,1,0-6.4,3.58,3.58,0,0,1,.48,0l1.15.13V32.92a7.38,7.38,0,0,1,14.09-3.1l.44.93.92-.46a5.29,5.29,0,1,1,2.36,10Zm0-12.59a7.2,7.2,0,0,0-2.35.39,9.38,9.38,0,0,0-17.4,3.81,5.2,5.2,0,0,0-4.63,3.66H7a5,5,0,0,1,0-10,5.61,5.61,0,0,1,.76.06l1.14.1V24.59a11,11,0,0,1,20.79-5l.41.78.82-.29a7.83,7.83,0,0,1,2.69-.48,8,8,0,0,1,6.33,12.91A7.3,7.3,0,0,0,33.1,27.73Z" fill="#fff"/></svg>