<svg xmlns="http://www.w3.org/2000/svg" viewBox="0 0 43.61 46.53"><path d="M39.21,20.93,38.05,19.3a10,10,0,0,0,2.79-3.05,12,12,0,0,1-1.7.13A11.87,11.87,0,0,1,27.29,4.54a11.76,11.76,0,0,1,.14-1.78,9.83,9.83,0,0,0-4.9,8.5,9.5,9.5,0,0,0,.09,1.31l-2,.27A11.8,11.8,0,0,1,28.57.05a1,1,0,0,1,1,.24,1,1,0,0,1,.24,1,9.89,9.89,0,0,0-.55,3.21,9.86,9.86,0,0,0,9.85,9.84,9.78,9.78,0,0,0,3.15-.53,1,1,0,0,1,1.27,1.27A11.87,11.87,0,0,1,39.21,20.93Z" fill="#fff"/><path d="M33.61,37.59H7a7,7,0,0,1-.06-14,13,13,0,0,1,24.12-5.67,10,10,0,1,1,2.55,19.67ZM7,25.59a5,5,0,0,0,0,10H33.61a8,8,0,0,0,0-16,7.83,7.83,0,0,0-2.69.48l-.82.29-.41-.78a11,11,0,0,0-20.79,5v1.15l-1.14-.09A4.77,4.77,0,0,0,7,25.59Z" fill="#fff"/><path d="M8.53,41.75,5.46,44.82a1,1,0,0,0,0,1.41,1,1,0,0,0,1.41,0l3.07-3.07a1,1,0,0,0-1.41-1.41Z" fill="#fff"/><path d="M20.67,41.75,17.6,44.82a1,1,0,0,0,.71,1.71,1,1,0,0,0,.7-.3l3.08-3.07a1,1,0,0,0,0-1.41A1,1,0,0,0,20.67,41.75Z" fill="#fff"/><path d="M34.23,41.75a1,1,0,0,0-1.41,0l-3.08,3.07a1,1,0,1,0,1.42,1.41l3.07-3.07A1,1,0,0,0,34.23,41.75Z" fill="#fff"/></svg>