<svg xmlns="http://www.w3.org/2000/svg" viewBox="0 0 43.61 50.85"><circle cx="11.81" cy="43.31" r="1.5" fill="#fff"/><circle cx="21.81" cy="43.31" r="1.5" fill="#fff"/><circle cx="31.81" cy="43.31" r="1.5" fill="#fff"/><circle cx="26.81" cy="49.35" r="1.5" fill="#fff"/><circle cx="16.81" cy="49.35" r="1.5" fill="#fff"/><path d="M39.21,20.93l-1.16-1.64a9.89,9.89,0,0,0,2.79-3,12,12,0,0,1-1.7.13A11.87,11.87,0,0,1,27.29,4.54a11.76,11.76,0,0,1,.14-1.78,9.81,9.81,0,0,0-4.81,9.82l-2,.26A11.8,11.8,0,0,1,28.57.05a1,1,0,0,1,1,.24,1,1,0,0,1,.24,1,9.89,9.89,0,0,0-.55,3.21,9.86,9.86,0,0,0,9.85,9.84,9.78,9.78,0,0,0,3.15-.53,1,1,0,0,1,1.27,1.27A11.87,11.87,0,0,1,39.21,20.93Z" fill="#fff"/><path d="M33.61,37.59H7a7,7,0,0,1-.06-14,13,13,0,0,1,24.12-5.67,10,10,0,1,1,2.55,19.67ZM7,25.59a5,5,0,0,0,0,10H33.61a8,8,0,0,0,0-16,7.83,7.83,0,0,0-2.69.48l-.82.29-.41-.78a11,11,0,0,0-20.79,5v1.16l-1.14-.1A5.61,5.61,0,0,0,7,25.59Z" fill="#fff"/></svg>