<svg xmlns="http://www.w3.org/2000/svg" viewBox="0 0 15.91 12.41"><path d="M11,9.5a3.23,3.23,0,0,1-1.27,2.31,3,3,0,0,1-1.93.6A3.15,3.15,0,0,1,4.88,9.5H3.12A3.09,3.09,0,0,1,.05,6.88,3.17,3.17,0,0,1,2.68,3.19a3,3,0,0,1,1.51.18l.09,0c.08-.2.15-.41.24-.6A4.41,4.41,0,0,1,8.52,0a4.41,4.41,0,0,1,4.26,2.46.33.33,0,0,0,.29.2,3.37,3.37,0,0,1,2.8,2.9,3.4,3.4,0,0,1-2.56,3.84,4.46,4.46,0,0,1-.81.09ZM11,9h1.61a2.91,2.91,0,0,0,.16-5.8.41.41,0,0,1-.37-.27A4.07,4.07,0,0,0,8.15.56,4.16,4.16,0,0,0,4.74,3.74c-.08.32-.21.38-.5.24a2.44,2.44,0,0,0-1.5-.27A2.65,2.65,0,0,0,3.05,9H4.9a4.32,4.32,0,0,1,.48-1.33A18.82,18.82,0,0,1,7.74,4.2c.14-.17.3-.16.46,0a22.5,22.5,0,0,1,1.92,2.64A6.45,6.45,0,0,1,11,9ZM8,4.76a.44.44,0,0,0-.09.11c-.39.51-.78,1-1.15,1.53a9.44,9.44,0,0,0-1.11,2,2.31,2.31,0,0,0-.19,1.25A2.6,2.6,0,0,0,8.1,11.88a2.63,2.63,0,0,0,2.42-2.53A2.73,2.73,0,0,0,10.15,8,15.06,15.06,0,0,0,8.42,5.34C8.28,5.15,8.12,5,8,4.76Z" transform="translate(0 0)" fill="#606060"/><path d="M9.28,8.29a2.21,2.21,0,0,1-.14.24c-.67.68-1.33,1.37-2,2.05-.14.14-.29.15-.4,0a.27.27,0,0,1,0-.4l2-2.06c.09-.08.19-.14.3-.08A1.49,1.49,0,0,1,9.28,8.29Z" transform="translate(0 0)" fill="#606060"/><path d="M7.7,8.32a.77.77,0,1,1-1.54,0,.77.77,0,1,1,1.54,0Zm-.51,0a.27.27,0,0,0-.25-.27.25.25,0,0,0-.26.25.27.27,0,0,0,.25.28A.27.27,0,0,0,7.19,8.32Z" transform="translate(0 0)" fill="#606060"/><path d="M9,9.37a.79.79,0,1,1-.76.79A.78.78,0,0,1,9,9.37ZM9,9.9a.26.26,0,0,0-.26.26.26.26,0,0,0,.24.27.27.27,0,0,0,.27-.27A.26.26,0,0,0,9,9.9Z" transform="translate(0 0)" fill="#606060"/></svg>