<svg xmlns="http://www.w3.org/2000/svg" viewBox="0 0 12.47 13"><path d="M0,6.86V6.1A.52.52,0,0,0,0,6,6.19,6.19,0,0,1,.73,3.46,6.24,6.24,0,0,1,5.19.1c.23,0,.47-.07.7-.1h.73l.12,0c.27,0,.54.06.8.12A6,6,0,0,1,11,2.3a6.5,6.5,0,0,1,1.44,4.83,6.48,6.48,0,0,1-1.33,3.41A6,6,0,0,1,6.42,13a5.61,5.61,0,0,1-3-.75A6.43,6.43,0,0,1,.1,7.58C.05,7.34,0,7.1,0,6.86ZM6.26.76A5.63,5.63,0,0,0,.73,6.47a5.65,5.65,0,0,0,5.52,5.77,5.63,5.63,0,0,0,5.49-5.77A5.61,5.61,0,0,0,6.26.76Z" fill="#606060"/><path d="M9.33,9.21a4.3,4.3,0,0,0,.92-2.35H10a.38.38,0,0,1-.41-.39A.37.37,0,0,1,10,6.1h.29a4.08,4.08,0,0,0-.86-2.24l-1,1.45C8,5.9,7.59,6.5,7.19,7.09a1.12,1.12,0,1,1-1.62-1.5c.46-.36.93-.7,1.4-1l1.8-1.34A4,4,0,0,0,6.62,2.3c0,.12,0,.23,0,.34a.37.37,0,0,1-.36.41.39.39,0,0,1-.37-.41V2.31a4,4,0,0,0-2.25,1c.08.08.16.14.23.22a.38.38,0,0,1,0,.55.36.36,0,0,1-.54,0L3.13,3.8a4.25,4.25,0,0,0-.92,2.3h.33a.36.36,0,0,1,.38.38.38.38,0,0,1-.38.38H2.21a4.45,4.45,0,0,0,.92,2.36L3.34,9a.36.36,0,0,1,.55,0,.4.4,0,0,1,0,.57c-.16.17-.32.34-.49.5a.35.35,0,0,1-.54,0A5.12,5.12,0,0,1,1.55,7.42a4.91,4.91,0,0,1,.74-3.7A4.66,4.66,0,0,1,5.6,1.58,4.46,4.46,0,0,1,9.27,2.66,4.81,4.81,0,0,1,11,5.79a5.14,5.14,0,0,1-1,3.87,3.47,3.47,0,0,1-.31.36.34.34,0,0,1-.5,0c-.19-.18-.37-.37-.55-.57a.37.37,0,0,1,0-.52.33.33,0,0,1,.5,0A3,3,0,0,1,9.33,9.21ZM7.77,4.9s-.08,0-.09.06L6.07,6.15l-.15.14a.29.29,0,0,0,0,.39.39.39,0,0,0,.66,0L7.71,5S7.74,5,7.77,4.9Z" fill="#606060"/><path d="M6.24,11.46c-.31,0-.61,0-.92,0a1.11,1.11,0,0,1-.93-1.12,1.08,1.08,0,0,1,.94-1.12,7.7,7.7,0,0,1,1,0,8.33,8.33,0,0,1,.87,0,1.13,1.13,0,0,1,0,2.23c-.31,0-.62,0-.92,0Zm0-1.5c-.25,0-.49,0-.73,0a.37.37,0,0,0-.4.38.37.37,0,0,0,.4.38H7a.37.37,0,0,0,.4-.38A.37.37,0,0,0,7,10C6.72,10,6.48,10,6.25,10Z" fill="#606060"/></svg>