<svg xmlns="http://www.w3.org/2000/svg" viewBox="0 0 15.41 15.99"><path d="M7.61,16a.41.41,0,0,1-.13-.34V13.36a.91.91,0,0,1,0-.17A.21.21,0,0,1,7.71,13a.22.22,0,0,1,.21.17.91.91,0,0,1,0,.17v2.29A.41.41,0,0,1,7.8,16Z" transform="translate(0 0)" fill="#606060"/><path d="M15.41,8.09a.36.36,0,0,1-.34.14H12.73A.22.22,0,0,1,12.55,8a.22.22,0,0,1,.19-.21h2.35a.36.36,0,0,1,.32.14Z" transform="translate(0 0)" fill="#606060"/><path d="M11.8,8a4.2,4.2,0,0,1-3.6,4.2,3.85,3.85,0,0,1-2.95-.82A.25.25,0,0,1,5.16,11c.08-.12.22-.12.37,0a3.42,3.42,0,0,0,3.84.33,3.84,3.84,0,0,0,1.28-5.56c-.15-.2-.15-.34,0-.43s.24,0,.38.15A4.36,4.36,0,0,1,11.8,8Z" transform="translate(0 0)" fill="#606060"/><path d="M3.62,8a4.17,4.17,0,0,1,3.59-4.2,3.84,3.84,0,0,1,2.91.79c.18.14.22.27.13.39s-.22.12-.4,0a3.44,3.44,0,0,0-2.24-.74A3.72,3.72,0,0,0,4.07,8a3.73,3.73,0,0,0,.69,2.2.83.83,0,0,1,.08.12.23.23,0,0,1,0,.32.22.22,0,0,1-.31-.05,6,6,0,0,1-.34-.53A4.16,4.16,0,0,1,3.62,8Z" transform="translate(0 0)" fill="#606060"/><path d="M7.46,7.75c0,.24,0,.49,0,.73a1,1,0,0,1-1,1,1,1,0,0,1-1.06-1c0-.53,0-1.06,0-1.59a.23.23,0,0,1,.24-.26c.13,0,.21.1.21.27V8.48A.54.54,0,0,0,6.33,9,.56.56,0,0,0,7,8.61a1.27,1.27,0,0,0,0-.2V7c0-.18.09-.28.22-.28a.23.23,0,0,1,.23.25C7.47,7.2,7.46,7.47,7.46,7.75Z" transform="translate(0 0)" fill="#606060"/><path d="M9,8.56,9.42,7.2l.09-.28c.07-.22.18-.29.32-.24s.18.18.11.38L9.38,8.73c-.07.19-.13.38-.19.57A.25.25,0,0,1,9,9.5c-.12,0-.18-.08-.22-.19L8,7c0-.16,0-.29.12-.33s.25,0,.31.19C8.58,7.42,8.76,8,9,8.56Z" transform="translate(0 0)" fill="#606060"/><path d="M7.93,1.48V2.76A.21.21,0,0,1,7.7,3a.2.2,0,0,1-.21-.2c0-.15,0-.3,0-.46V.36a.81.81,0,0,1,0-.16A.2.2,0,0,1,7.7,0a.21.21,0,0,1,.22.2,1.41,1.41,0,0,1,0,.2Z" transform="translate(0 0)" fill="#606060"/><path d="M1.43,7.76H2.6c.17,0,.27.1.26.25a.22.22,0,0,1-.23.22H.19A.21.21,0,0,1,0,8a.21.21,0,0,1,.21-.22H1.43Z" transform="translate(0 0)" fill="#606060"/><path d="M2.75,2.59a2,2,0,0,1,.19.13L4.26,4.09a.23.23,0,0,1,0,.35.21.21,0,0,1-.33,0L2.61,3a.22.22,0,0,1,0-.28A1.08,1.08,0,0,1,2.75,2.59Z" transform="translate(0 0)" fill="#606060"/><path d="M12.91,2.85A1.39,1.39,0,0,1,12.8,3L11.47,4.42a.21.21,0,0,1-.33,0,.23.23,0,0,1,0-.35l1.32-1.37c.08-.08.17-.14.27-.07S12.85,2.78,12.91,2.85Z" transform="translate(0 0)" fill="#606060"/><path d="M4.37,11.69a1,1,0,0,1-.11.21L2.94,13.27c-.12.12-.25.13-.35,0a.23.23,0,0,1,0-.34c.44-.47.88-.93,1.33-1.38a.3.3,0,0,1,.26-.06C4.27,11.52,4.31,11.62,4.37,11.69Z" transform="translate(0 0)" fill="#606060"/><path d="M12.88,13.09c0,.21-.17.32-.32.25l-.08-.06L11.15,11.9a.25.25,0,0,1-.05-.31.2.2,0,0,1,.25-.1.34.34,0,0,1,.12.09l1.32,1.36A.65.65,0,0,1,12.88,13.09Z" transform="translate(0 0)" fill="#606060"/><path d="M6,3.14c0,.11-.06.21-.17.21a.26.26,0,0,1-.24-.1c-.15-.32-.28-.65-.4-1A.2.2,0,0,1,5.31,2a.18.18,0,0,1,.26.07c.15.34.28.69.42,1Z" transform="translate(0 0)" fill="#606060"/><path d="M10,14s-.12-.07-.15-.14c-.13-.3-.25-.62-.37-.93a.22.22,0,0,1,.13-.3.2.2,0,0,1,.28.13c.13.3.25.61.37.92A.24.24,0,0,1,10,14Z" transform="translate(0 0)" fill="#606060"/><path d="M9.69,3.37a.24.24,0,0,1-.26-.31c.12-.32.25-.63.38-.94A.21.21,0,0,1,10.1,2a.22.22,0,0,1,.12.29c-.12.32-.24.64-.38,1C9.81,3.3,9.72,3.34,9.69,3.37Z" transform="translate(0 0)" fill="#606060"/><path d="M3,6.25c-.37-.17-.72-.32-1.06-.49-.05,0-.06-.18,0-.26a.17.17,0,0,1,.24-.12,10.32,10.32,0,0,1,1,.42.3.3,0,0,1,.09.25C3.21,6.12,3.11,6.18,3,6.25Z" transform="translate(0 0)" fill="#606060"/><path d="M12.38,6.22a.2.2,0,0,1-.2-.18.3.3,0,0,1,.09-.25,10.25,10.25,0,0,1,1-.41c.1,0,.2,0,.25.13a.19.19,0,0,1-.07.27c-.32.15-.66.29-1,.43Z" transform="translate(0 0)" fill="#606060"/><path d="M3.25,10.07s-.08.12-.15.15c-.29.14-.58.26-.87.38a.21.21,0,0,1-.3-.12.22.22,0,0,1,.13-.31c.29-.13.58-.26.87-.37S3.25,9.85,3.25,10.07Z" transform="translate(0 0)" fill="#606060"/><path d="M12.41,9.77l.11,0,.79.34c.17.07.23.19.18.33s-.18.18-.35.1-.56-.23-.83-.36a.21.21,0,0,1-.14-.27A.24.24,0,0,1,12.41,9.77Z" transform="translate(0 0)" fill="#606060"/><path d="M6,12.83c-.17.4-.32.76-.49,1.12,0,0-.18.05-.25,0a.19.19,0,0,1-.11-.26l.39-1a.19.19,0,0,1,.26-.1C5.9,12.67,6,12.76,6,12.83Z" transform="translate(0 0)" fill="#606060"/></svg>