<svg xmlns="http://www.w3.org/2000/svg" viewBox="0 0 13.43 9.56"><path d="M13.43,4.81,13.34,5a7.5,7.5,0,0,1-1.69,2.52A6.89,6.89,0,0,1,8.59,9.29a6.85,6.85,0,0,1-5.76-.91A7.4,7.4,0,0,1,0,4.85.38.38,0,0,1,0,4.7,7.32,7.32,0,0,1,4.51.36,6.68,6.68,0,0,1,7.58.06a6.87,6.87,0,0,1,3.65,1.61,7.34,7.34,0,0,1,2.09,2.85,2.4,2.4,0,0,0,.11.23ZM6.71,8A3.12,3.12,0,0,0,9.76,4.77a3.13,3.13,0,0,0-3-3.18A3.13,3.13,0,0,0,3.65,4.78,3.11,3.11,0,0,0,6.71,8Z" transform="translate(0 0)" fill="#606060"/><path d="M6.71,2.87A1.88,1.88,0,0,1,8.54,4.79,1.88,1.88,0,0,1,6.7,6.69,1.88,1.88,0,0,1,4.87,4.77,1.88,1.88,0,0,1,6.71,2.87Z" transform="translate(0 0)" fill="#606060"/></svg>