<svg xmlns="http://www.w3.org/2000/svg" viewBox="0 0 15 15"><path d="M5.56,10H1.66a.44.44,0,0,0-.07.87H9.35a1.32,1.32,0,0,1,1.17.86,1.31,1.31,0,0,1-1.78,1.65A1.29,1.29,0,0,1,8,12.2a.44.44,0,0,0-.45-.45.44.44,0,0,0-.43.47,1.5,1.5,0,0,0,0,.29A2.19,2.19,0,1,0,9.28,10ZM7.38,8.23H4a.44.44,0,0,0-.45.4.43.43,0,0,0,.35.47h6.82a.42.42,0,0,0,.41-.27.44.44,0,0,0-.44-.61Zm-4.5,4.68,0,0H.5a.59.59,0,0,0-.23,0,.42.42,0,0,0-.26.47.43.43,0,0,0,.44.37H2.86v0l-.35.37a.45.45,0,0,0,0,.64.43.43,0,0,0,.64,0q.57-.55,1.14-1.14a.43.43,0,0,0,0-.65c-.37-.38-.75-.76-1.14-1.13a.43.43,0,0,0-.64,0,.44.44,0,0,0,0,.64ZM1.35,9.11h.86a.44.44,0,1,0,0-.88H.48A.45.45,0,0,0,0,8.68a.44.44,0,0,0,.47.43Zm5-2.64H5.8a.45.45,0,0,0-.47.44.45.45,0,0,0,.47.44c.37,0,.75,0,1.12,0a.43.43,0,0,0,.46-.44.43.43,0,0,0-.45-.43Z" fill="#606060"/><path d="M15,5.42c0,.11-.05.22-.08.34a2.19,2.19,0,0,1-2.08,1.59c-1.37,0-2.74,0-4.1,0a.45.45,0,0,1-.48-.43.46.46,0,0,1,.48-.45c1.35,0,2.7,0,4,0a1.32,1.32,0,0,0,.05-2.63,1.32,1.32,0,0,0-1.34,1.25.92.92,0,0,1,0,.16.44.44,0,0,1-.48.34.42.42,0,0,1-.39-.45,2.14,2.14,0,0,1,1.28-2A2.19,2.19,0,0,1,15,4.81a.19.19,0,0,0,0,.08Z" fill="#606060"/><path d="M8,0a.56.56,0,0,1,.34.6,5,5,0,0,1-.29,1.57A2.93,2.93,0,0,1,5.9,4c-.33.08-.68.1-1,.15a.22.22,0,0,0-.15.11.72.72,0,0,0,.12.78A.66.66,0,0,1,5,5.35a.41.41,0,0,1-.25.46.42.42,0,0,1-.5-.1,1.62,1.62,0,0,1-.2-2,.68.68,0,0,0,.08-.24A4.53,4.53,0,0,1,4.5,1.85a2.87,2.87,0,0,1,2-1.67c.3-.08.6-.12.9-.18ZM5.05,3.29A2.3,2.3,0,0,0,7.42.92,2.34,2.34,0,0,0,5.05,3.29Z" fill="#606060"/><path d="M5.56,10H9.28a2.2,2.2,0,1,1-2.16,2.52,1.5,1.5,0,0,1,0-.29.44.44,0,0,1,.43-.47A.44.44,0,0,1,8,12.2a1.32,1.32,0,0,0,2.21,1,1.3,1.3,0,0,0,.34-1.43,1.32,1.32,0,0,0-1.17-.86H1.59A.44.44,0,0,1,1.66,10h3.9Z" fill="#606060"/><path d="M7.38,8.23h3.34a.44.44,0,0,1,.44.61.42.42,0,0,1-.41.27H3.93a.43.43,0,0,1-.35-.47A.44.44,0,0,1,4,8.23H7.38Z" fill="#606060"/><path d="M2.88,12.91l-.38-.36a.44.44,0,0,1,0-.64.43.43,0,0,1,.64,0c.39.37.77.75,1.14,1.13a.43.43,0,0,1,0,.65q-.57.58-1.14,1.14a.43.43,0,0,1-.64,0,.45.45,0,0,1,0-.64l.35-.37v0H.45A.43.43,0,0,1,0,13.46.42.42,0,0,1,.27,13,.59.59,0,0,1,.5,13H2.85Z" fill="#606060"/><path d="M1.35,9.11H.47A.44.44,0,0,1,0,8.68a.45.45,0,0,1,.48-.45H2.22a.44.44,0,1,1,0,.88Z" fill="#606060"/><path d="M6.36,6.47h.57a.43.43,0,0,1,.45.43.43.43,0,0,1-.46.44c-.37,0-.75,0-1.12,0a.45.45,0,0,1-.47-.44.45.45,0,0,1,.47-.44Z" fill="#606060"/></svg>