<svg xmlns="http://www.w3.org/2000/svg" viewBox="0 0 33.3 33.31"><path d="M8,16.66a8.61,8.61,0,1,0,8.61-8.61A8.61,8.61,0,0,0,8,16.66Zm15.22,0a6.61,6.61,0,1,1-6.61-6.61A6.61,6.61,0,0,1,23.26,16.66Z" fill="#fff"/><path d="M5.4,16.65a1,1,0,0,0-1-1H1a1,1,0,0,0,0,2H4.4A1,1,0,0,0,5.4,16.65Z" fill="#fff"/><path d="M32.3,15.65H28.9a1,1,0,0,0,0,2h3.4a1,1,0,1,0,0-2Z" fill="#fff"/><path d="M5.54,21.92,2.6,23.62a1,1,0,0,0,.5,1.86,1,1,0,0,0,.5-.13l2.94-1.7a1,1,0,0,0,.37-1.37A1,1,0,0,0,5.54,21.92Z" fill="#fff"/><path d="M27.26,11.53a1,1,0,0,0,.5-.13l2.95-1.7a1,1,0,0,0-1-1.74l-2.95,1.7a1,1,0,0,0,.5,1.87Z" fill="#fff"/><path d="M11,26.4a1,1,0,0,0-1.37.37L8,29.71a1,1,0,0,0,.37,1.37,1,1,0,0,0,.49.13,1,1,0,0,0,.87-.5l1.7-2.94A1,1,0,0,0,11,26.4Z" fill="#fff"/><path d="M25,2.23a1,1,0,0,0-1.37.37l-1.7,2.94A1,1,0,0,0,22.78,7a1,1,0,0,0,.86-.5l1.7-2.94A1,1,0,0,0,25,2.23Z" fill="#fff"/><rect x="15.65" y="27.91" width="2" height="5.4" rx="1" fill="#fff"/><path d="M16.65,5.4a1,1,0,0,0,1-1V1a1,1,0,1,0-2,0V4.4A1,1,0,0,0,16.65,5.4Z" fill="#fff"/><path d="M23.64,26.76a1,1,0,0,0-1.73,1l1.7,2.95a1,1,0,1,0,1.73-1Z" fill="#fff"/><path d="M9.66,6.54a1,1,0,0,0,.87.5,1,1,0,0,0,.86-1.5L9.69,2.6A1,1,0,1,0,8,3.6Z" fill="#fff"/><path d="M30.71,23.62l-2.95-1.71a1,1,0,0,0-1,1.74l2.95,1.7a1,1,0,0,0,.5.13,1,1,0,0,0,.5-1.86Z" fill="#fff"/><path d="M6.54,9.66,3.6,8a1,1,0,0,0-1,1.74l2.94,1.69a1,1,0,0,0,.5.14,1,1,0,0,0,.5-1.87Z" fill="#fff"/></svg>