<svg xmlns="http://www.w3.org/2000/svg" viewBox="0 0 43.61 39.28"><circle cx="11.81" cy="31.75" r="1.5" fill="#fff"/><circle cx="21.81" cy="31.75" r="1.5" fill="#fff"/><circle cx="31.81" cy="31.75" r="1.5" fill="#fff"/><path d="M26.81,36.45a1.34,1.34,0,1,0,1.33,1.33A1.34,1.34,0,0,0,26.81,36.45Z" fill="#fff"/><circle cx="16.81" cy="37.78" r="1.5" fill="#fff"/><path d="M33.61,26H7A7,7,0,0,1,7,12,13,13,0,0,1,31.06,6.34,10,10,0,1,1,33.61,26ZM7,14A5,5,0,0,0,7,24H33.61a8,8,0,0,0,0-16,7.83,7.83,0,0,0-2.69.48l-.82.29L29.69,8A11,11,0,0,0,8.9,13v1.17l-1.14-.1A4.55,4.55,0,0,0,7,14Z" fill="#fff"/></svg>