<svg xmlns="http://www.w3.org/2000/svg" viewBox="0 0 43.61 42"><path d="M11.8,37.22,8.73,40.29A1,1,0,0,0,9.44,42a1,1,0,0,0,.71-.3l3.07-3.07a1,1,0,0,0,0-1.41A1,1,0,0,0,11.8,37.22Z" fill="#fff"/><path d="M9.94,30.19a1,1,0,0,0-1.41,0L5.46,33.26a1,1,0,0,0,0,1.41,1,1,0,0,0,1.41,0L9.94,31.6A1,1,0,0,0,9.94,30.19Z" fill="#fff"/><path d="M24,37.22l-3.08,3.07a1,1,0,0,0,0,1.41,1,1,0,0,0,.71.3,1,1,0,0,0,.71-.3l3.07-3.07A1,1,0,1,0,24,37.22Z" fill="#fff"/><path d="M22.09,30.19a1,1,0,0,0-1.42,0L17.6,33.26a1,1,0,0,0,0,1.41,1,1,0,0,0,.71.29,1,1,0,0,0,.7-.29l3.08-3.07A1,1,0,0,0,22.09,30.19Z" fill="#fff"/><path d="M34.23,30.19a1,1,0,0,0-1.41,0l-3.08,3.07a1,1,0,0,0,0,1.41,1,1,0,0,0,1.42,0l3.07-3.07A1,1,0,0,0,34.23,30.19Z" fill="#fff"/><path d="M33.61,26H7A7,7,0,0,1,7,12,13,13,0,0,1,31.06,6.34,10,10,0,1,1,33.61,26ZM7,14A5,5,0,0,0,7,24H33.61a8,8,0,0,0,0-16,7.83,7.83,0,0,0-2.69.48l-.82.29L29.69,8A11,11,0,0,0,8.9,13v1.17l-1.14-.1A4.55,4.55,0,0,0,7,14Z" fill="#fff"/></svg>