<svg xmlns="http://www.w3.org/2000/svg" viewBox="0 0 43.61 53.52"><path d="M28,5.3h.06a1,1,0,0,0,1-.94l.19-3.3a1,1,0,0,0-2-.12l-.19,3.3A1,1,0,0,0,28,5.3Z" fill="#fff"/><path d="M27.86,7.8A8.46,8.46,0,0,0,20,12.1l1.74,1a6.43,6.43,0,0,1,6-3.28,6.39,6.39,0,0,1,6,6.74,6.64,6.64,0,0,1-.34,1.72l1.89.65a8.16,8.16,0,0,0,.44-2.25A8.38,8.38,0,0,0,27.86,7.8Z" fill="#fff"/><path d="M42.6,16.06l-3.29-.2a1,1,0,0,0-1.06.94,1,1,0,0,0,.94,1.06l3.3.19h0a1,1,0,0,0,.06-2Z" fill="#fff"/><path d="M41.4,10.25a1,1,0,0,0,.45-1.35,1,1,0,0,0-1.35-.44l-3,1.48A1,1,0,0,0,38,11.83a1,1,0,0,0,.45-.1Z" fill="#fff"/><path d="M36.27,2.64a1,1,0,0,0-1.38.29L33.07,5.68a1,1,0,0,0,.84,1.55,1,1,0,0,0,.83-.45L36.56,4A1,1,0,0,0,36.27,2.64Z" fill="#fff"/><path d="M22,6.54a1,1,0,0,0,.45-.1,1,1,0,0,0,.44-1.35L21.44,2.14A1,1,0,0,0,20.1,1.7,1,1,0,0,0,19.65,3l1.49,3A1,1,0,0,0,22,6.54Z" fill="#fff"/><path d="M18,8.8,15.22,7a1,1,0,0,0-1.1,1.67l2.76,1.81a1,1,0,0,0,.55.17A1,1,0,0,0,18,8.8Z" fill="#fff"/><path d="M33.61,37.56H7a7,7,0,0,1-.06-14,13,13,0,0,1,24.12-5.66,10,10,0,1,1,2.55,19.67ZM7,25.55a5,5,0,0,0,0,10H33.61a8,8,0,0,0,0-16,7.83,7.83,0,0,0-2.69.48l-.82.29-.41-.78a11,11,0,0,0-20.79,5v1.17l-1.14-.1A4.46,4.46,0,0,0,7,25.55Z" fill="#fff"/><path d="M11.83,48.74,8.75,51.81a1,1,0,1,0,1.42,1.41l3.07-3.07a1,1,0,0,0-1.41-1.41Z" fill="#fff"/><path d="M10,41.7a1,1,0,0,0-1.42,0L5.48,44.78a1,1,0,0,0,0,1.41,1,1,0,0,0,1.41,0L10,43.12A1,1,0,0,0,10,41.7Z" fill="#fff"/><path d="M24,48.74,20.9,51.81a1,1,0,0,0,.7,1.71,1,1,0,0,0,.71-.3l3.07-3.07A1,1,0,0,0,24,48.74Z" fill="#fff"/><path d="M22.11,41.7a1,1,0,0,0-1.42,0l-3.07,3.08a1,1,0,0,0,0,1.41,1,1,0,0,0,.71.29,1,1,0,0,0,.71-.29l3.07-3.07A1,1,0,0,0,22.11,41.7Z" fill="#fff"/><path d="M34.25,41.7a1,1,0,0,0-1.41,0l-3.08,3.08a1,1,0,0,0,.71,1.7,1,1,0,0,0,.71-.29l3.07-3.07A1,1,0,0,0,34.25,41.7Z" fill="#fff"/></svg>