<svg xmlns="http://www.w3.org/2000/svg" viewBox="0 0 43.61 50.82"><path d="M11.77,42a1.34,1.34,0,1,0,1.33,1.33A1.34,1.34,0,0,0,11.77,42Z" fill="#fff"/><path d="M21.77,42a1.34,1.34,0,1,0,1.33,1.33A1.34,1.34,0,0,0,21.77,42Z" fill="#fff"/><circle cx="31.77" cy="43.29" r="1.5" fill="#fff"/><circle cx="26.77" cy="49.32" r="1.37" fill="#fff"/><circle cx="16.77" cy="49.32" r="1.5" fill="#fff"/><path d="M27.86,7.8A8.44,8.44,0,0,0,20,12.1l1.74,1a6.44,6.44,0,0,1,6-3.27,6.39,6.39,0,0,1,6,6.74,6.64,6.64,0,0,1-.34,1.72l1.89.65a8.16,8.16,0,0,0,.44-2.25A8.38,8.38,0,0,0,27.86,7.8Z" fill="#fff"/><path d="M42.6,16.05l-3.3-.19a1,1,0,0,0-1,.94,1,1,0,0,0,.94,1.06l3.3.19h0a1,1,0,0,0,1-.94A1,1,0,0,0,42.6,16.05Z" fill="#fff"/><path d="M41.4,10.24a1,1,0,1,0-.9-1.78l-3,1.48A1,1,0,0,0,38,11.83a.91.91,0,0,0,.45-.11Z" fill="#fff"/><path d="M36.27,2.64a1,1,0,0,0-1.38.28L33.07,5.68a1,1,0,0,0,.84,1.55,1,1,0,0,0,.83-.45L36.56,4A1,1,0,0,0,36.27,2.64Z" fill="#fff"/><path d="M28,5.29h.06a1,1,0,0,0,1-1l.19-3.29a1,1,0,0,0-2-.12l-.19,3.3A1,1,0,0,0,28,5.29Z" fill="#fff"/><path d="M22,6.54a1,1,0,0,0,.45-.1,1,1,0,0,0,.44-1.35L21.44,2.14A1,1,0,0,0,20.1,1.7,1,1,0,0,0,19.65,3l1.49,3A1,1,0,0,0,22,6.54Z" fill="#fff"/><path d="M18,8.8,15.22,7a1,1,0,0,0-1.1,1.67l2.76,1.81a1,1,0,0,0,.55.17A1,1,0,0,0,18,8.8Z" fill="#fff"/><path d="M33.61,37.56H7a7,7,0,0,1-.06-14,13,13,0,0,1,24.12-5.66,9.61,9.61,0,0,1,2.55-.34,10,10,0,0,1,0,20ZM7,25.55a5,5,0,0,0,0,10H33.61a8,8,0,0,0,0-16,7.83,7.83,0,0,0-2.69.48l-.82.29-.41-.78a11,11,0,0,0-20.79,5v1.16l-1.14-.09A4.46,4.46,0,0,0,7,25.55Z" fill="#fff"/></svg>